<svg xmlns="http://www.w3.org/2000/svg" viewBox="0 0 32 32">
    <path fill="#6734BA" d="M16.01 0c-5.11,2.11 -9.79,4.85 -13.87,7.99 -0.7,5.48 -0.69,10.9 -0.01,16 4.39,3.37 9.11,6.04 13.88,8.01 2,-0.82 3.97,-1.76 5.91,-2.82 -5.92,-1.92 -10.93,-4.65 -15.17,-7.85 -0.23,-1.74 -0.36,-3.52 -0.36,-5.33 0,-1.81 0.13,-3.6 0.37,-5.34 2.92,-2.24 6.07,-4.03 9.24,-5.33 3.4,1.42 6.52,3.23 9.24,5.33 0.47,3.65 0.46,7.27 0,10.67 -1.19,0.92 -2.46,1.79 -3.78,2.59 1.95,0.8 3.83,1.47 5.69,2.04 0.93,-0.63 1.83,-1.29 2.71,-1.96 0.71,-5.48 0.68,-10.9 0,-16 -4.39,-3.35 -9.1,-6.04 -13.85,-8l0 0zm-0.01 10.66c-1.7,0.71 -3.26,1.62 -4.62,2.67 -0.24,1.83 -0.23,3.63 0,5.33 1.46,1.13 3.03,2.02 4.62,2.67 1.7,-0.71 3.26,-1.62 4.62,-2.66 0.24,-1.83 0.23,-3.64 0,-5.34 -1.46,-1.12 -3.03,-2.01 -4.62,-2.67l0 0z"/>
</svg>
